<mxfile host="drawio-plugin" modified="2021-11-30T08:25:56.529Z" agent="5.0 (Windows NT 6.2; Win64; x64) AppleWebKit/537.36 (KHTML, like Gecko) Chrome/89.0.4389.114 Safari/537.36" etag="n-_8dstJC_Mvx94GgJMy" version="14.7.4" type="embed"><diagram id="WtoI8rleKbLQLg0CLOOO" name="Page-1"><mxGraphModel dx="638" dy="514" grid="1" gridSize="10" guides="1" tooltips="1" connect="1" arrows="1" fold="1" page="1" pageScale="1" pageWidth="850" pageHeight="1100" math="0" shadow="0"><root><mxCell id="0"/><mxCell id="1" parent="0"/></root></mxGraphModel></diagram></mxfile>